<?xml version="1.0" standalone="no"?><!DOCTYPE svg PUBLIC "-//W3C//DTD SVG 1.1//EN" "http://www.w3.org/Graphics/SVG/1.1/DTD/svg11.dtd"><svg t="1488431433117" class="icon" style="" viewBox="0 0 1025 1024" version="1.1" xmlns="http://www.w3.org/2000/svg" p-id="4042" xmlns:xlink="http://www.w3.org/1999/xlink" width="200.1953125" height="200"><defs><style type="text/css"></style></defs><path d="M732.849575 973.241379C732.433783 973.465267 732.017991 973.625187 731.602199 973.849075 664.947526 1005.641179 590.68066 1024 512.031984 1024 229.741129 1024 0.063968 794.322839 0.063968 512 0.063968 300.713643 128.767616 118.948526 311.876062 40.843578 312.643678 40.491754 313.37931 40.13993 314.210895 39.852074 375.108446 14.232884 441.955022 0 512.031984 0 794.386807 0 1024.063968 229.677161 1024.063968 512 1024.063968 715.194403 904.795602 890.594703 732.849575 973.241379ZM743.692154 894.688656C852.533733 828.545727 930.606697 717.401299 952.89955 587.322339 922.706647 578.590705 805.709145 550.252874 657.751124 579.678161 711.324338 717.433283 734.416792 833.023488 743.692154 894.688656ZM683.242379 925.809095C676.877561 876.873563 655.704148 749.545227 594.966517 595.222389 568.09995 603.346327 540.561719 613.389305 512.607696 626.054973 327.068466 710.076962 252.609695 833.087456 236.137931 864.175912 312.291854 923.954023 407.956022 959.968016 512.031984 959.968016 572.673663 959.968016 630.468766 947.718141 683.242379 925.809095ZM64.095952 512C64.095952 631.332334 111.272364 739.598201 187.586207 819.974013 218.034983 768.31984 303.4003 650.490755 486.22089 567.716142 514.782609 554.762619 542.8006 544.527736 570.242879 535.892054 558.312844 508.961519 545.1994 481.487256 530.710645 453.597201 527.672164 447.776112 524.889555 442.818591 521.915042 437.157421 370.726637 484.461769 239.816092 495.496252 152.947526 495.496252 114.438781 495.496252 84.885557 493.417291 65.5992 491.530235 65.27936 498.406797 64.095952 505.05947 64.095952 512ZM73.051474 427.786107C130.206897 433.031484 292.077961 439.652174 491.082459 379.714143 406.612694 226.798601 343.604198 143.096452 316.321839 109.705147 191.648176 170.634683 100.013993 287.792104 73.051474 427.786107ZM512.031984 64.031984C465.431284 64.031984 420.493753 71.228386 378.210895 84.501749 412.561719 128.447776 473.875062 214.804598 552.811594 359.052474 728.435782 293.133433 782.84058 202.426787 797.713143 167.276362 720.11994 102.86057 620.521739 64.031984 512.031984 64.031984ZM845.945027 214.42079C816.9995 267.706147 747.082459 352.71964 583.196402 416.015992 584.667666 418.830585 586.010995 421.261369 587.482259 424.107946 604.337831 456.507746 618.890555 488.043978 632.483758 519.10045 785.975012 485.325337 910.168916 509.601199 959.328336 522.618691 959.392304 519.036482 960.031984 515.614193 960.031984 512 960.031984 397.721139 916.629685 293.645177 845.945027 214.42079Z" p-id="4043"></path></svg>