<?xml version="1.0" standalone="no"?><!DOCTYPE svg PUBLIC "-//W3C//DTD SVG 1.1//EN" "http://www.w3.org/Graphics/SVG/1.1/DTD/svg11.dtd"><svg t="1488441046066" class="icon" style="" viewBox="0 0 1756 1024" version="1.1" xmlns="http://www.w3.org/2000/svg" p-id="6222" xmlns:xlink="http://www.w3.org/1999/xlink" width="342.96875" height="200"><defs><style type="text/css"></style></defs><path d="M1475.371886 89.6l-7.842743 0L286.2848 89.6l-10.249143 0L245.156571 89.6 234.057143 89.6l0 847.464229 1285.807543 0L1519.864686 89.6 1475.371886 89.6 1475.371886 89.6zM1416.100571 142.564571 919.336229 654.120229c-22.593829 23.328914-62.178743 23.328914-84.750629 0L337.707886 142.564571 1416.100571 142.564571 1416.100571 142.564571zM285.485714 163.671771l333.950171 343.806171L285.485714 851.406629 285.485714 163.671771 285.485714 163.671771zM326.464 884.092343l329.386057-339.114057 142.350629 146.600229c20.999314 21.677714 49.020343 33.614629 78.756571 33.614629 29.743543 0 57.764571-11.944229 78.7712-33.614629l142.314057-146.600229 329.300114 339.114057L326.464 884.092343 326.464 884.092343zM1468.443429 851.5072l-334.014171-343.972571L1468.443429 163.556571 1468.443429 851.5072 1468.443429 851.5072zM1468.443429 851.5072" p-id="6223" fill="#515151"></path></svg>